<svg xmlns="http://www.w3.org/2000/svg" width="21" height="25"><path fill="#FF5C5C" fill-rule="evenodd" d="M17.188 13.269c-.031-3.11 2.537-4.602 2.652-4.676-1.443-2.111-3.69-2.4-4.491-2.433-1.913-.194-3.732 1.125-4.703 1.125-.968 0-2.465-1.097-4.052-1.068-2.084.031-4.006 1.212-5.08 3.079C-.652 13.055.959 18.622 3.07 21.67c1.032 1.492 2.262 3.168 3.877 3.108 1.555-.062 2.143-1.006 4.023-1.006s2.409 1.006 4.055.975c1.673-.031 2.734-1.52 3.758-3.017 1.185-1.731 1.672-3.407 1.701-3.492-.037-.018-3.263-1.254-3.296-4.969zm-3.092-9.127c.857-1.04 1.436-2.483 1.278-3.922-1.235.05-2.731.822-3.617 1.86-.795.92-1.491 2.389-1.304 3.8 1.378.107 2.785-.701 3.643-1.738z"/></svg>