<svg xmlns="http://www.w3.org/2000/svg" width="11" height="11"><path fill="#B6B6B6" fill-rule="evenodd" d="M8.704.325a.208.208 0 0 0-.292 0L5.429 3.309a.21.21 0 0 1-.293 0L2.153.325a.209.209 0 0 0-.293 0L.325 1.86a.208.208 0 0 0 0 .292l2.983 2.984a.206.206 0 0 1 0 .292L.325 8.412a.208.208 0 0 0 0 .292l1.535 1.535a.207.207 0 0 0 .293 0l2.983-2.983a.207.207 0 0 1 .293 0l2.983 2.983c.08.081.212.081.292 0l1.536-1.535a.208.208 0 0 0 0-.292L7.256 5.428a.208.208 0 0 1 0-.292l2.984-2.984a.208.208 0 0 0 0-.292L8.704.325z"/></svg>