<svg xmlns="http://www.w3.org/2000/svg" width="62" height="56"><path fill="#DA5A5A" fill-rule="evenodd" d="M60.015 43.129c.695 0 1.12.562 1.12 1.258v6.038c0 2.775-2.807 4.71-5.581 4.71H12.652c-2.774 0-4.755-1.155-4.755-3.93v-6.818c0-.696.563-1.258 1.258-1.258 2.796 0 4.686-1.849 5.5-4.38-.817-2.616-3.031-4.425-5.775-4.425-1.127 0-2.212.31-3.226.922a1.259 1.259 0 0 1-1.742-.453l-3.168-5.54c-1.371-2.396-.552-5.807 1.827-7.193L39.057 1.038A4.94 4.94 0 0 1 42.842.53a4.967 4.967 0 0 1 3.042 2.348l3.064 5.353a1.26 1.26 0 0 1-.488 1.73c-2.035 1.111-3.299 3.217-3.299 5.494 0 .881.234 2.667.595 3.467h9.798c2.774 0 5.581 1.936 5.581 4.711v5.659c0 .695-.425 1.258-1.12 1.258-3.467 0-7.309 2.821-7.309 6.29 0 3.467 3.842 6.289 7.309 6.289zM7.897 29.292v-6.623c0-.232.038-.455.069-.679l-4.13 2.245c-1.188.692-1.597 2.567-.908 3.768l2.573 4.503a8.622 8.622 0 0 1 3.378-.698c2.017 0 3.72.695 5.226 1.88-1.092-1.867-2.637-3.138-4.95-3.138a1.257 1.257 0 0 1-1.258-1.258zM46.173 8.448l-2.471-4.32a2.468 2.468 0 0 0-1.511-1.168 2.428 2.428 0 0 0-1.868.252l-27.766 15.71h30.478c-.248-.816-.388-2.614-.388-3.467a8.771 8.771 0 0 1 3.526-7.007zm4.018 28.392c0-4.429 4.307-8.104 8.566-8.716v-4.491c0-1.387-1.816-2.516-3.203-2.516H23.992v2.83c0 .696-.563.57-1.258.57-.695 0-.74.126-.74-.57v-2.83h-9.342c-1.387 0-2.515.853-2.515 2.24v4.767c4.26.612 7.361 4.287 7.361 8.716 0 4.428-3.101 8.103-7.361 8.715v4.87a2.518 2.518 0 0 0 2.515 2.516h9.342V50.74c0-.696.045-1.258.74-1.258s1.258.562 1.258 1.258v2.201h31.562c1.387 0 3.203-1.129 3.203-2.516v-4.87c-4.259-.612-8.566-4.287-8.566-8.715zm-6.287 11.321c-2.116 0-3.772-2.211-3.772-5.032 0-2.822 1.656-5.031 3.772-5.031 2.116 0 3.772 2.209 3.772 5.031 0 2.821-1.656 5.032-3.772 5.032zm0-7.548c-.513 0-1.257.981-1.257 2.516 0 1.535.744 2.516 1.257 2.516.513 0 1.257-.981 1.257-2.516 0-1.535-.744-2.516-1.257-2.516zm-11.569 7.044a1.251 1.251 0 0 1-1.759.251 1.254 1.254 0 0 1-.252-1.76l15.089-20.126c.417-.555 1.206-.999 1.76-.585.556.416.669 1.538.251 2.093L32.335 47.657zm1.51-12.075c-2.116 0-3.773-2.211-3.773-5.032 0-2.822 1.657-5.365 3.773-5.365 2.115 0 3.772 2.543 3.772 5.365 0 2.821-1.657 5.032-3.772 5.032zm0-7.548c-.514 0-1.258.981-1.258 2.516 0 1.535.744 2.516 1.258 2.516.513 0 1.257-.981 1.257-2.516 0-1.535-.744-2.516-1.257-2.516zM22.734 44.701c-.695 0-.74-.563-.74-1.258v-2.515c0-.696.045-1.258.74-1.258s1.258.562 1.258 1.258v2.515c0 .695-.563 1.258-1.258 1.258zm0-10.063c-.695 0-.74-.563-.74-1.258v-2.516c0-.695.045-1.258.74-1.258s1.258.563 1.258 1.258v2.516c0 .695-.563 1.258-1.258 1.258z"/></svg>