<svg xmlns="http://www.w3.org/2000/svg" width="53" height="49"><path fill="#26A31F" fill-rule="evenodd" d="M47.49 26.485c-1.943 1.938-4.911 2.802-7.855 2.802-3.167 0-6.299-1.006-8.091-2.753-4.124 6.396-5.234 14.169-5.234 20.643a1.193 1.193 0 0 1-2.386-.003c0-11.532-1.927-19.119-4.355-24.199-1.788 1.025-4.151 1.594-6.531 1.594-2.944 0-5.915-.867-7.852-2.805C.596 17.172.066 8.186.066 1.825.066 1.166.6.631 1.259.631c6.358 0 15.341.532 19.931 5.122 3.93 3.929 3.443 12.085.281 15.686 1.642 3.296 3.089 7.575 3.961 13.238.943-3.559 2.417-7.07 4.619-10.246-2.057-4.046-1.952-10.571 1.434-13.957 4.591-4.592 13.573-5.122 19.932-5.122.658 0 1.193.535 1.192 1.194 0 6.361-.531 15.347-5.119 19.939zM19.503 7.443C15.798 3.736 8.271 3.094 2.459 3.025c.069 5.815.711 13.345 4.416 17.052 2.645 2.646 8.501 2.602 11.581.787-2.662-4.56-5.639-6.604-7.303-7.743-.551-.377-.959-.67-1.195-.904a1.194 1.194 0 0 1 1.687-1.688c.166.165.467.358.854.623 1.762 1.207 4.886 3.354 7.718 7.992 1.885-3.046 1.966-9.02-.714-11.701zm13.666 4.719c-2.264 2.265-2.557 6.886-1.458 10.103 2.391-2.804 5.465-5.256 9.408-7.11.594-.277 1.401-.072 1.682.527.282.597.122 1.261-.472 1.543 0 0-.193.09-.193.092-3.925 1.845-6.904 4.358-9.172 7.238.069.079.133.168.205.24 2.551 2.552 9.642 2.989 12.629 0 3.705-3.704 4.347-11.234 4.416-17.051-5.812.069-13.339.711-17.045 4.418z"/></svg>