<svg xmlns="http://www.w3.org/2000/svg" width="24" height="24"><path fill="#ED625A" fill-rule="evenodd" d="M12 .5C5.659.5.499 5.659.499 12S5.659 23.5 12 23.5c6.341 0 11.5-5.159 11.5-11.5S18.341.5 12 .5zm0 21.545C6.461 22.045 1.955 17.538 1.955 12 1.955 6.461 6.461 1.955 12 1.955c5.538 0 10.045 4.506 10.045 10.045 0 5.538-4.507 10.045-10.045 10.045zm6.079-13.132c.2.291.127.689-.163.89l-5.793 4.002a.648.648 0 0 1-.66.04.642.642 0 0 1-.343-.567V4.713a.64.64 0 0 1 1.279 0v7.347l4.79-3.31a.642.642 0 0 1 .89.163z"/></svg>