<svg xmlns="http://www.w3.org/2000/svg" width="21" height="21"><path fill="#FF5C5C" fill-rule="evenodd" d="M2.566-.002h15.868c1.412 0 2.567 1.045 2.567 2.567v15.869c0 1.503-1.127 2.542-2.516 2.567H2.566c-1.413 0-2.568-1.045-2.568-2.567V2.565c0-1.522 1.655-2.567 3.068-2.567h-.5zM15.07 2.72a.904.904 0 0 0-.901.901v2.156c0 .495.405.9.901.9h2.26a.903.903 0 0 0 .901-.9V3.621a.904.904 0 0 0-.901-.901h-2.26zm3.17 6.237h-1.76a5.87 5.87 0 0 1 .257 1.716c0 3.327-2.784 6.025-6.218 6.025S4.301 14 4.301 10.673c0-.596.09-1.172.257-1.716H2.721v8.45c0 .437.358.795.795.795h13.93a.798.798 0 0 0 .795-.795v-8.45h-.001zm-7.722-2.394c-2.218 0-4.017 1.743-4.017 3.893 0 2.15 1.799 3.893 4.017 3.893 2.219 0 4.018-1.743 4.018-3.893 0-2.15-1.798-3.893-4.018-3.893z"/></svg>