<svg xmlns="http://www.w3.org/2000/svg" width="26" height="21"><path fill="#FF5C5C" fill-rule="evenodd" d="M19.348 11.567a410.729 410.729 0 0 1 4.914-3.382 7.823 7.823 0 0 0 1.414-1.237v11.473l-6.328-6.854zm3.91-4.903c-2.289 1.595-4.017 2.799-5.19 3.618l-1.431.998-.212.152-.39.282c-.306.222-.561.402-.764.54-.203.137-.448.291-.736.461a4.231 4.231 0 0 1-.813.384 2.252 2.252 0 0 1-.708.128h-.028c-.217 0-.453-.043-.707-.128a4.238 4.238 0 0 1-.814-.384c-.288-.17-.533-.324-.736-.461a36.091 36.091 0 0 1-.764-.54 52.728 52.728 0 0 0-.39-.282l-.211-.152a710.51 710.51 0 0 0-3.707-2.591 574.38 574.38 0 0 1-2.9-2.025c-.585-.397-1.137-.944-1.655-1.64C.583 4.328.324 3.248.324 2.652c0-.739.195-1.354.587-1.847.391-.492.95-.738 1.676-.738h20.826c.613 0 1.143.223 1.592.667.447.446.671.981.671 1.606 0 .748-.231 1.896-.692 2.577a6.76 6.76 0 0 1-1.726 1.747zM1.753 8.185a470.446 470.446 0 0 1 4.901 3.379L.323 18.42V6.948c.415.465.892.877 1.43 1.237zm7.031 4.9c.537.397.973.707 1.308.93.335.222.781.449 1.337.681.557.233 1.076.348 1.557.348h.028c.481 0 1-.115 1.556-.348.556-.232 1.002-.459 1.337-.681.335-.223.771-.533 1.309-.93l.497-.36 7.183 7.712c-.42.373-.914.562-1.483.562H2.587c-.57 0-1.064-.189-1.484-.562l7.185-7.714c.18.13.346.251.496.362z"/></svg>