<svg xmlns="http://www.w3.org/2000/svg" width="26" height="21"><path fill="#505050" fill-rule="evenodd" d="M19.348 11.567a413.136 413.136 0 0 1 4.914-3.383 7.78 7.78 0 0 0 1.414-1.236V18.42l-6.328-6.853zm3.91-4.903c-2.289 1.595-4.017 2.799-5.19 3.618l-1.431.998-.212.152-.39.282c-.306.222-.561.402-.764.54-.203.137-.448.291-.736.461a4.231 4.231 0 0 1-.813.384 2.249 2.249 0 0 1-.708.127h-.028c-.217 0-.453-.042-.707-.127a4.238 4.238 0 0 1-.814-.384c-.288-.17-.533-.324-.736-.461a36.091 36.091 0 0 1-.764-.54l-.39-.283-.211-.151a895.062 895.062 0 0 0-3.707-2.592 536.368 536.368 0 0 1-2.9-2.024c-.585-.397-1.137-.944-1.655-1.64C.583 4.328.324 3.248.324 2.652c0-.739.195-1.354.587-1.847.391-.492.95-.738 1.676-.738h20.826c.613 0 1.143.223 1.591.667.448.446.672.98.672 1.605 0 .749-.231 1.897-.692 2.578a6.76 6.76 0 0 1-1.726 1.747zM1.753 8.184a484.23 484.23 0 0 1 4.901 3.38L.323 18.42V6.948c.415.465.892.877 1.43 1.236zm7.031 4.9c.537.398.973.708 1.308.931.335.222.781.449 1.337.681.557.232 1.075.348 1.557.348h.028c.481 0 1-.116 1.556-.348.556-.232 1.002-.459 1.337-.681.335-.223.771-.533 1.309-.931l.497-.359 7.183 7.712c-.42.373-.914.562-1.483.562H2.587c-.57 0-1.064-.189-1.484-.562l7.185-7.714.496.361z"/></svg>