<svg xmlns="http://www.w3.org/2000/svg" width="31" height="29"><path fill="#EC5850" fill-rule="evenodd" d="M23.906 28.766c-.17 0-.34-.041-.497-.123l-8.112-4.264-8.112 4.264a1.069 1.069 0 0 1-1.55-1.126l1.549-9.031-6.562-6.395a1.066 1.066 0 0 1 .592-1.822l9.069-1.317L14.339.736a1.069 1.069 0 0 1 1.917 0l4.055 8.216 9.07 1.317a1.068 1.068 0 0 1 .592 1.822l-6.563 6.396 1.55 9.03a1.07 1.07 0 0 1-1.054 1.249zM3.663 12.072l5.415 5.277c.252.245.367.599.307.945l-1.278 7.451 6.693-3.518c.311-.163.683-.163.994 0l6.694 3.518-1.279-7.451c-.059-.346.055-.7.307-.945l5.415-5.277-7.483-1.087a1.067 1.067 0 0 1-.804-.584l-3.347-6.779-3.346 6.779a1.069 1.069 0 0 1-.805.584l-7.483 1.087z"/></svg>