<svg xmlns="http://www.w3.org/2000/svg" width="26" height="21"><path fill="#505050" fill-rule="evenodd" d="M24.629.869a10.15 10.15 0 0 1-3.209 1.226 5.05 5.05 0 0 0-8.605 4.604A14.332 14.332 0 0 1 2.407 1.423a5.013 5.013 0 0 0-.683 2.538c0 1.753.892 3.298 2.246 4.203a5.05 5.05 0 0 1-2.288-.634v.063a5.057 5.057 0 0 0 4.051 4.953 5.108 5.108 0 0 1-2.281.086 5.058 5.058 0 0 0 4.716 3.508 10.133 10.133 0 0 1-6.271 2.16c-.408 0-.81-.024-1.205-.069A14.298 14.298 0 0 0 8.433 20.5c9.289 0 14.368-7.696 14.368-14.37l-.017-.654a10.152 10.152 0 0 0 2.524-2.61 10.08 10.08 0 0 1-2.899.795 5.082 5.082 0 0 0 2.22-2.792z"/></svg>