<svg xmlns="http://www.w3.org/2000/svg" width="24" height="24"><path fill="#EC5850" fill-rule="evenodd" d="M22.878 7.751C21.66 4.91 19.59 2.844 16.727 1.622A11.296 11.296 0 0 0 12.243.7a11.24 11.24 0 0 0-4.483.922C4.921 2.841 2.829 4.906 1.609 7.751A11.258 11.258 0 0 0 .7 12.237c0 1.567.298 3.073.909 4.499 1.22 2.846 3.312 4.923 6.151 6.142a11.24 11.24 0 0 0 4.483.922c1.567 0 3.053-.312 4.484-.922 2.863-1.222 4.933-3.301 6.151-6.142.613-1.43.922-2.932.922-4.499 0-1.567-.309-3.055-.922-4.486zM8.404 2.848c-.998 1.264-1.73 2.869-2.198 4.815H3.188a10.36 10.36 0 0 1 5.216-4.815zm-6.302 9.389c0-1.099.176-2.161.518-3.184h3.309a21.052 21.052 0 0 0 0 6.343H2.594a10.326 10.326 0 0 1-.492-3.159zm1.086 4.549h3.018c.468 1.984 1.2 3.615 2.198 4.866-2.273-.948-4.143-2.679-5.216-4.866zm8.348 5.497c-.821-.24-1.591-.846-2.286-1.832-.694-.986-1.225-2.211-1.591-3.665h3.877v5.497zm0-6.887H7.343a21.96 21.96 0 0 1-.253-3.159c0-1.061.089-2.123.279-3.184h4.167v6.343zm0-7.733H7.659c.391-1.441.925-2.652 1.617-3.627.697-.984 1.439-1.592 2.26-1.82v5.447zm9.776 0h-3.019c-.467-1.946-1.2-3.551-2.197-4.815a10.363 10.363 0 0 1 5.216 4.815zm-8.349-5.447c.821.228 1.563.836 2.261 1.82.692.975 1.225 2.186 1.617 3.627h-3.878V2.216zm0 6.837h4.168c.19 1.061.278 2.123.278 3.184 0 .986-.088 2.035-.253 3.159h-4.193V9.053zm0 13.23v-5.497h3.878c-.379 1.454-.917 2.675-1.604 3.665-.69.994-1.44 1.605-2.274 1.832zm3.133-.631c.997-1.251 1.73-2.882 2.197-4.866h3.019c-1.074 2.187-2.943 3.918-5.216 4.866zm5.809-6.256h-3.334a21.052 21.052 0 0 0 0-6.343h3.309a10.01 10.01 0 0 1 .518 3.184c0 1.074-.164 2.136-.493 3.159z"/></svg>