<svg xmlns="http://www.w3.org/2000/svg" width="20" height="24"><path fill="#FF5C5C" fill-rule="evenodd" d="M1.459 7.519h-.061c-.769 0-1.397.618-1.397 1.372v5.97c0 .756.628 1.373 1.397 1.373h.061c.769 0 1.397-.618 1.397-1.373v-5.97c0-.754-.629-1.372-1.397-1.372zm2.066 9.646c0 .693.579 1.259 1.285 1.259h1.373v3.224c0 .758.63 1.374 1.398 1.374h.06c.77 0 1.4-.617 1.4-1.374v-3.224h1.918v3.224c0 .758.632 1.374 1.4 1.374h.059c.77 0 1.399-.617 1.399-1.374v-3.224h1.373c.706 0 1.284-.566 1.284-1.259V7.738H3.525v9.427zm9.699-15.144L14.314.37a.223.223 0 0 0-.068-.314.233.233 0 0 0-.321.067l-1.13 1.708A7.49 7.49 0 0 0 10 1.299a7.495 7.495 0 0 0-2.796.532L6.075.123a.233.233 0 0 0-.321-.067.224.224 0 0 0-.069.314l1.091 1.651c-1.967.946-3.294 2.729-3.294 4.774 0 .126.008.25.019.372h12.998c.011-.122.018-.246.018-.372.001-2.045-1.327-3.828-3.293-4.774zM6.987 4.978a.619.619 0 0 1-.626-.613c0-.34.28-.612.626-.612.347 0 .625.272.625.612 0 .34-.279.613-.625.613zm6.026 0a.62.62 0 0 1-.626-.613c0-.34.281-.612.626-.612.346 0 .625.272.625.612 0 .34-.279.613-.625.613zm5.588 2.541h-.059c-.769 0-1.4.618-1.4 1.372v5.97c0 .756.631 1.373 1.4 1.373h.059c.77 0 1.398-.618 1.398-1.373v-5.97c0-.754-.629-1.372-1.398-1.372z"/></svg>