<svg xmlns="http://www.w3.org/2000/svg" width="19" height="30"><path fill="#EC5850" fill-rule="evenodd" d="M9.38.563a9.049 9.049 0 0 1 6.429 2.672 9.074 9.074 0 0 1 2.672 6.439c0 2.547-1.638 5.616-3.068 8.299a55.212 55.212 0 0 0-1.19 2.296l-4.185 8.716a.736.736 0 0 1-1.326 0l-4.186-8.716c-.334-.699-.751-1.482-1.18-2.296C1.906 15.29.268 12.221.268 9.674a9.076 9.076 0 0 1 2.671-6.439A9.08 9.08 0 0 1 9.38.563zm0 4.644a4.46 4.46 0 0 1 4.457 4.467 4.454 4.454 0 0 1-4.457 4.458 4.49 4.49 0 0 1-3.162-1.305 4.45 4.45 0 0 1-1.305-3.153c0-1.242.501-2.358 1.305-3.162A4.49 4.49 0 0 1 9.38 5.207zm2.108 2.349A2.965 2.965 0 0 0 9.38 6.68c-.835 0-1.576.334-2.119.876a2.975 2.975 0 0 0-.876 2.119c0 .825.334 1.566.876 2.108a2.972 2.972 0 0 0 2.119.877c.825 0 1.566-.334 2.108-.877a2.962 2.962 0 0 0 .877-2.108c0-.835-.334-1.576-.877-2.119zm3.288-3.277A7.598 7.598 0 0 0 9.38 2.034a7.58 7.58 0 0 0-5.396 2.245 7.58 7.58 0 0 0-2.245 5.396c0 2.192 1.545 5.073 2.902 7.609.438.825.856 1.618 1.21 2.348l3.528 7.338 3.518-7.338c.355-.73.773-1.523 1.211-2.348 1.356-2.536 2.901-5.417 2.901-7.609a7.607 7.607 0 0 0-2.233-5.396z"/></svg>