<svg xmlns="http://www.w3.org/2000/svg" width="43" height="67"><path fill="#558DAD" fill-rule="evenodd" d="M36.548 66.996H6.461C3.299 66.993.987 64.763.983 61.601V5.147C.987 1.986 3.299.006 6.461.003h30.087c3.163.003 5.475 1.983 5.479 5.144v56.454c-.004 3.162-2.316 5.392-5.479 5.395zm3.437-61.849c0-1.897-1.538-3.186-3.437-3.186H6.461c-1.898 0-3.437 1.289-3.437 3.186v.895h36.961v-.895zm0 2.853H3.024v50.997h36.961V8zm0 52.976H3.024v.625a3.437 3.437 0 0 0 3.437 3.437h30.087a3.437 3.437 0 0 0 3.437-3.437v-.625zm-16.373 3.25h-4.583a1.146 1.146 0 1 1 0-2.291h4.583a1.145 1.145 0 1 1 0 2.291zm-11.538-40.25h6.791c.633 0 1.146.513 1.146 1.145v6.708c0 .633-.513 1.146-1.146 1.146h-6.791a1.146 1.146 0 0 1-1.146-1.146v-6.708c0-.632.513-1.145 1.146-1.145zm.896 6.707h4.999v-4.666H12.97v4.666zm-.896 4.333h6.708c.632 0 1.145.513 1.145 1.146v6.708c0 .632-.513 1.145-1.145 1.145h-6.708a1.146 1.146 0 0 1-1.146-1.145v-6.708c0-.633.513-1.146 1.146-1.146zm.896 6.958h4.999v-5H12.97v5zm8.407-3.101l4.53-4.861a1.146 1.146 0 0 1 1.62 0l4.861 4.861a1.144 1.144 0 0 1 0 1.62l-4.861 4.861a1.144 1.144 0 0 1-1.62 0l-4.53-4.861a1.146 1.146 0 0 1 0-1.62zm5.34 4.052l3.241-3.242-3.241-3.241-3.241 3.241 3.241 3.242zm3.187-9.949H23.28c-.633 0-1.146-.68-1.146-1.312v-6.541c0-.633.513-1.146 1.146-1.146h6.624c.633 0 1.146.513 1.146 1.146v6.541c0 .632-.513 1.312-1.146 1.312zm-.895-6.958h-5v5h5v-5zM16.737 2.856h1.146a1.146 1.146 0 1 1 0 2.291h-1.146c-.632 0-1.395-.512-1.395-1.145s.763-1.146 1.395-1.146zm4.583 0h4.583a1.146 1.146 0 1 1 0 2.291H21.32a1.145 1.145 0 1 1 0-2.291z"/></svg>