<svg xmlns="http://www.w3.org/2000/svg" width="56" height="56" viewBox="0 0 56 56"><defs><style>.cls-1{fill:#ec5850}.cls-2{fill:#fff;fill-rule:evenodd}</style></defs><circle id="_-e-Ellipse_3_copy_2" data-name="-e-Ellipse 3 copy 2" class="cls-1" cx="28" cy="28" r="27.5"/><path id="_-e-Forma_1" data-name="-e-Forma 1" class="cls-2" d="M36.906 40.766a1.072 1.072 0 0 1-.5-.123L28.3 36.38l-8.112 4.264a1.069 1.069 0 0 1-1.55-1.126l1.549-9.03-6.563-6.4a1.068 1.068 0 0 1 .592-1.822l9.07-1.318 4.056-8.216a1.068 1.068 0 0 1 1.916 0l4.056 8.216 9.069 1.318a1.068 1.068 0 0 1 .592 1.822l-6.563 6.4 1.549 9.03a1.069 1.069 0 0 1-1.055 1.248z"/></svg>