<svg xmlns="http://www.w3.org/2000/svg" width="66" height="65"><path fill="#505050" fill-rule="evenodd" d="M63 65H27a3 3 0 0 1-3-3v-2.001H1a1 1 0 0 1-1-1v-51a1 1 0 0 1 1-1h23V3a3 3 0 0 1 3-3h36a3 3 0 0 1 3 3v59a3 3 0 0 1-3 3zM24 19.198c-2.097.058-3.781 1.733-3.781 3.802s1.684 3.743 3.781 3.801v-7.603zm0 9.79c-3.323-.059-6-2.712-6-5.989 0-3.276 2.677-5.929 6-5.989V14H11v5H6v9h5v5h13v-4.012zM24 35H9v-5H4V17h5v-5h15V9H2v29h22v-3zm0 5H2v3h22v-3zm0 5H2v3h22v-3zm0 5H2v3h22v-3zm0 5H2v3h22v-3zM64 4a2 2 0 0 0-2-2H28a2 2 0 0 0-2 2v57a2 2 0 0 0 2 2h34a2 2 0 0 0 2-2V4zm-5 56h-5a2 2 0 0 1-2-2V42a2 2 0 0 1 2-2h5a2 2 0 0 1 2 2v16a2 2 0 0 1-2 2zm0-16a2 2 0 0 0-2-2h-1a2 2 0 0 0-2 2v12a2 2 0 0 0 2 2h1a2 2 0 0 0 2-2V44zm0-6h-5a2 2 0 0 1-2-2v-5a2 2 0 0 1 2-2h5a2 2 0 0 1 2 2v5a2 2 0 0 1-2 2zm0-5a2 2 0 0 0-2-2h-1a2 2 0 0 0-2 2v1a2 2 0 0 0 2 2h1a2 2 0 0 0 2-2v-1zm0-6h-5a2 2 0 0 1-2-2.001V20a2 2 0 0 1 2-2h5a2 2 0 0 1 2 2v4.999A2 2 0 0 1 59 27zm0-5a2 2 0 0 0-2-2h-1a2 2 0 0 0-2 2v1a2 2 0 0 0 2 1.999h1A2 2 0 0 0 59 23v-1zm-1-8H32a3 3 0 0 1-3-3V8a3 3 0 0 1 3-3h26a3 3 0 0 1 3 3v3a3 3 0 0 1-3 3zm-1.5-7h-23a2.5 2.5 0 1 0 0 5h23a2.5 2.5 0 0 0 0-5zM31 18h5a2 2 0 0 1 2 2v4.999A2 2 0 0 1 36 27h-5a2 2 0 0 1-2-2.001V20a2 2 0 0 1 2-2zm0 5a2 2 0 0 0 2 1.999h1A2 2 0 0 0 36 23v-1a2 2 0 0 0-2-2h-1a2 2 0 0 0-2 2v1zm0 6h5a2 2 0 0 1 2 2v5a2 2 0 0 1-2 2h-5a2 2 0 0 1-2-2v-5a2 2 0 0 1 2-2zm0 5a2 2 0 0 0 2 2h1a2 2 0 0 0 2-2v-1a2 2 0 0 0-2-2h-1a2 2 0 0 0-2 2v1zm0 6h5a2 2 0 0 1 2 2v5a2 2 0 0 1-2 2h-5a2 2 0 0 1-2-2v-5a2 2 0 0 1 2-2zm0 5a2 2 0 0 0 2 2h1a2 2 0 0 0 2-2v-1a2 2 0 0 0-2-2h-1a2 2 0 0 0-2 2v1zm0 6h5a2 2 0 0 1 2 2v5a2 2 0 0 1-2 2h-5a2 2 0 0 1-2-2v-5a2 2 0 0 1 2-2zm0 5a2 2 0 0 0 2 2h1a2 2 0 0 0 2-2v-1a2 2 0 0 0-2-2h-1a2 2 0 0 0-2 2v1zm11-38h5a2 2 0 0 1 2 2v4.999A2 2 0 0 1 47 27h-5a2 2 0 0 1-2-2.001V20a2 2 0 0 1 2-2zm0 5a2 2 0 0 0 2 1.999h1A2 2 0 0 0 47 23v-1a2 2 0 0 0-2-2h-1a2 2 0 0 0-2 2v1zm0 6h5a2 2 0 0 1 2 2v5a2 2 0 0 1-2 2h-5a2 2 0 0 1-2-2v-5a2 2 0 0 1 2-2zm0 5a2 2 0 0 0 2 2h1a2 2 0 0 0 2-2v-1a2 2 0 0 0-2-2h-1a2 2 0 0 0-2 2v1zm0 6h5a2 2 0 0 1 2 2v5a2 2 0 0 1-2 2h-5a2 2 0 0 1-2-2v-5a2 2 0 0 1 2-2zm0 5a2 2 0 0 0 2 2h1a2 2 0 0 0 2-2v-1a2 2 0 0 0-2-2h-1a2 2 0 0 0-2 2v1zm0 6h5a2 2 0 0 1 2 2v5a2 2 0 0 1-2 2h-5a2 2 0 0 1-2-2v-5a2 2 0 0 1 2-2zm0 5a2 2 0 0 0 2 2h1a2 2 0 0 0 2-2v-1a2 2 0 0 0-2-2h-1a2 2 0 0 0-2 2v1zM5.5 12a1.5 1.5 0 1 1 0 3 1.5 1.5 0 0 1 0-3zm0 20a1.5 1.5 0 1 1 0 3 1.5 1.5 0 0 1 0-3z"/></svg>